HIERARCHY
ROOT hip
{
  OFFSET 26.715 86.2426 248.726
  CHANNELS 6 Xposition Yposition Zposition Zrotation Xrotation Yrotation
  JOINT abdomen
  {
    OFFSET 0 20.6881 -0.73152
    CHANNELS 3 Zrotation Xrotation Yrotation
    JOINT chest
    {
      OFFSET 0 11.7043 -0.48768
      CHANNELS 3 Zrotation Xrotation Yrotation
      JOINT neck
      {
        OFFSET 0 22.1894 -2.19456
        CHANNELS 3 Zrotation Xrotation Yrotation
        JOINT head
        {
          OFFSET -0.24384 7.07133 1.2192
          CHANNELS 3 Zrotation Xrotation Yrotation
          JOINT leftEye
          {
            OFFSET 4.14528 8.04674 8.04672
            CHANNELS 3 Zrotation Xrotation Yrotation
            End Site
            {
              OFFSET 1 0 0
            }
          }
          JOINT rightEye
          {
            OFFSET -3.6576 8.04674 8.04672
            CHANNELS 3 Zrotation Xrotation Yrotation
            End Site
            {
              OFFSET 1 0 0
            }
          }
        }
      }
      JOINT rCollar
      {
        OFFSET -2.68224 19.2634 -4.8768
        CHANNELS 3 Zrotation Xrotation Yrotation
        JOINT rShldr
        {
          OFFSET -8.77824 -1.95073 1.46304
          CHANNELS 3 Zrotation Xrotation Yrotation
          JOINT rForeArm
          {
            OFFSET -28.1742 -1.7115 0.48768
            CHANNELS 3 Zrotation Xrotation Yrotation
            JOINT rHand
            {
              OFFSET -22.5879 0.773209 7.07136
              CHANNELS 3 Zrotation Xrotation Yrotation
              JOINT rThumb1
              {
                OFFSET -1.2192 -0.487915 3.41376
                CHANNELS 3 Zrotation Xrotation Yrotation
                JOINT rThumb2
                {
                  OFFSET -3.37035 -0.52449 3.41376
                  CHANNELS 3 Zrotation Xrotation Yrotation
                  End Site
                  {
                    OFFSET -1.78271 -1.18214 1.43049
                  }
                }
              }
              JOINT rIndex1
              {
                OFFSET -7.75947 0.938293 5.60832
                CHANNELS 3 Zrotation Xrotation Yrotation
                JOINT rIndex2
                {
                  OFFSET -2.54057 -0.884171 1.56538
                  CHANNELS 3 Zrotation Xrotation Yrotation
                  End Site
                  {
                    OFFSET -1.62519 -0.234802 1.16502
                  }
                }
              }
              JOINT rMid1
              {
                OFFSET -8.24714 1.18213 3.41376
                CHANNELS 3 Zrotation Xrotation Yrotation
                JOINT rMid2
                {
                  OFFSET -3.10165 -0.590103 1.0647
                  CHANNELS 3 Zrotation Xrotation Yrotation
                  End Site
                  {
                    OFFSET -2.48547 -0.328903 0.83742
                  }
                }
              }
              JOINT rRing1
              {
                OFFSET -8.82822 0.546677 1.51678
                CHANNELS 3 Zrotation Xrotation Yrotation
                JOINT rRing2
                {
                  OFFSET -2.60934 -0.819778 -0.0198488
                  CHANNELS 3 Zrotation Xrotation Yrotation
                  End Site
                  {
                    OFFSET -2.33842 -0.294052 0.168128
                  }
                }
              }
              JOINT rPinky1
              {
                OFFSET -8.27202 -0.0477905 -0.4584
                CHANNELS 3 Zrotation Xrotation Yrotation
                JOINT rPinky2
                {
                  OFFSET -1.82734 -0.647385 -0.700984
                  CHANNELS 3 Zrotation Xrotation Yrotation
                  End Site
                  {
                    OFFSET -1.69225 -0.51767 -0.607171
                  }
                }
              }
            }
          }
        }
      }
      JOINT lCollar
      {
        OFFSET 2.68224 19.2634 -4.8768
        CHANNELS 3 Zrotation Xrotation Yrotation
        JOINT lShldr
        {
          OFFSET 8.77824 -1.95073 1.46304
          CHANNELS 3 Zrotation Xrotation Yrotation
          JOINT lForeArm
          {
            OFFSET 28.1742 -1.7115 0.48768
            CHANNELS 3 Zrotation Xrotation Yrotation
            JOINT lHand
            {
              OFFSET 22.5879 0.773209 7.07136
              CHANNELS 3 Zrotation Xrotation Yrotation
              JOINT lThumb1
              {
                OFFSET 1.2192 -0.487915 3.41376
                CHANNELS 3 Zrotation Xrotation Yrotation
                JOINT lThumb2
                {
                  OFFSET 3.37035 -0.52449 3.41376
                  CHANNELS 3 Zrotation Xrotation Yrotation
                  End Site
                  {
                    OFFSET 1.78271 -1.18214 1.43049
                  }
                }
              }
              JOINT lIndex1
              {
                OFFSET 7.75947 0.938293 5.60832
                CHANNELS 3 Zrotation Xrotation Yrotation
                JOINT lIndex2
                {
                  OFFSET 2.54057 -0.884171 1.56538
                  CHANNELS 3 Zrotation Xrotation Yrotation
                  End Site
                  {
                    OFFSET 1.62519 -0.234802 1.16502
                  }
                }
              }
              JOINT lMid1
              {
                OFFSET 8.24714 1.18213 3.41376
                CHANNELS 3 Zrotation Xrotation Yrotation
                JOINT lMid2
                {
                  OFFSET 3.10165 -0.590103 1.0647
                  CHANNELS 3 Zrotation Xrotation Yrotation
                  End Site
                  {
                    OFFSET 2.48547 -0.328903 0.83742
                  }
                }
              }
              JOINT lRing1
              {
                OFFSET 8.82822 0.546677 1.51678
                CHANNELS 3 Zrotation Xrotation Yrotation
                JOINT lRing2
                {
                  OFFSET 2.60934 -0.819778 -0.0198488
                  CHANNELS 3 Zrotation Xrotation Yrotation
                  End Site
                  {
                    OFFSET 2.33842 -0.294052 0.168128
                  }
                }
              }
              JOINT lPinky1
              {
                OFFSET 8.27202 -0.0477905 -0.4584
                CHANNELS 3 Zrotation Xrotation Yrotation
                JOINT lPinky2
                {
                  OFFSET 1.82734 -0.647385 -0.700984
                  CHANNELS 3 Zrotation Xrotation Yrotation
                  End Site
                  {
                    OFFSET 1.69225 -0.51767 -0.607171
                  }
                }
              }
            }
          }
        }
      }
    }
  }
  JOINT rButtock
  {
    OFFSET -8.77824 4.35084 1.2192
    CHANNELS 3 Zrotation Xrotation Yrotation
    JOINT rThigh
    {
      OFFSET 0 -1.70687 -2.19456
      CHANNELS 3 Zrotation Xrotation Yrotation
      JOINT rShin
      {
        OFFSET 0 -36.8199 0.73152
        CHANNELS 3 Zrotation Xrotation Yrotation
        JOINT rFoot
        {
          OFFSET 0.73152 -45.1104 -5.12064
          CHANNELS 3 Zrotation Xrotation Yrotation
          End Site
          {
            OFFSET -1.1221 -3.69964 12.103
          }
        }
      }
    }
  }
  JOINT lButtock
  {
    OFFSET 8.77824 4.35084 1.2192
    CHANNELS 3 Zrotation Xrotation Yrotation
    JOINT lThigh
    {
      OFFSET 0 -1.70687 -2.19456
      CHANNELS 3 Zrotation Xrotation Yrotation
      JOINT lShin
      {
        OFFSET 0 -36.8199 0.73152
        CHANNELS 3 Zrotation Xrotation Yrotation
        JOINT lFoot
        {
          OFFSET -0.73152 -45.1104 -5.12064
          CHANNELS 3 Zrotation Xrotation Yrotation
          End Site
          {
            OFFSET 1.1221 -3.69964 12.103
          }
        }
      }
    }
  }
}
MOTION
Frames:	6
Frame Time:	0.00833333
-45.2251 90.7656 57.933 -5.27175 -2.42149 108.36 -8.06741 6.48583 -4.4495 2.44473 -5.64175 -1.31747 -2.48455 6.53514 -7.33618 5.49226 33.1592 -10.1738 -0 0 0 -0 0 0 -1.2141e-014 1.34498e-012 3.41795e-013 64.5516 7.84972 -15.0603 -19.3341 -12.1938 37.0964 -0.252041 -14.1451 -2.02987 4.10429e-010 -3.87e-009 1.90293e-009 6.84516e-010 -6.74371e-009 3.3056e-009 4.10431e-010 -3.86999e-009 1.90292e-009 7.73091 5.47488 0.417314 4.10427e-010 -3.87e-009 1.90292e-009 2.90554 0.965183 0.102902 4.10436e-010 -3.87e-009 1.90292e-009 10.2786 0.731801 0.0259123 4.10424e-010 -3.87e-009 1.90292e-009 2.22167 -0.733487 -0.20892 -1.22607e-014 1.345e-012 3.41562e-013 -70.2243 32.9776 2.62824 27.0425 -26.4813 -61.651 0.95519 -26.611 4.03759 -1.1773e-009 2.42876e-010 -4.66479e-010 -2.02628e-009 4.08438e-010 -8.2567e-010 -1.1773e-009 2.42879e-010 -4.6647e-010 -7.73091 5.47488 -0.417314 -1.17729e-009 2.42877e-010 -4.66481e-010 -2.90554 0.965183 -0.102902 -1.1773e-009 2.42876e-010 -4.66479e-010 -10.2786 0.731801 -0.0259123 -1.17729e-009 2.42878e-010 -4.66479e-010 -2.22167 -0.733487 0.20892 -2.03217e-016 0 -3.88251e-019 -3.01652 -14.2503 5.59324 -0.336584 39.011 0.568788 5.74577 -17.6902 15.0558 2.03217e-016 0 3.88251e-019 1.3367 -19.792 -16.9939 0.442949 46.4144 -1.04201 3.43631 -33.4613 5.37426 
-44.7177 90.6748 59.6688 -5.10491 -2.3928 108.622 -8.07267 6.59172 -4.35568 2.44972 -5.63001 -1.29497 -2.57349 6.53924 -7.42193 5.60972 32.9996 -10.3712 -0 0 0 -0 0 0 -5.7377e-015 1.73697e-012 4.45073e-013 65.2644 7.74518 -15.1716 -19.107 -11.9266 36.5604 -0.226982 -13.4507 -1.92624 -1.71059e-010 -4.33968e-009 1.92855e-009 -3.19862e-010 -7.54384e-009 3.34366e-009 -1.71051e-010 -4.33967e-009 1.92854e-009 7.73091 5.47488 0.417314 -1.7106e-010 -4.33968e-009 1.92854e-009 2.90554 0.965183 0.102902 -1.71048e-010 -4.33968e-009 1.92854e-009 10.2786 0.731801 0.0259123 -1.71061e-010 -4.33968e-009 1.92854e-009 2.22167 -0.733487 -0.20892 -5.7923e-015 1.73699e-012 4.44861e-013 -71.7561 33.1569 3.55512 27.046 -26.4932 -61.6713 0.944266 -26.4723 4.01317 -1.37065e-009 9.0499e-011 -5.44194e-010 -2.35799e-009 1.43687e-010 -9.62365e-010 -1.37065e-009 9.05024e-011 -5.44182e-010 -7.73091 5.47488 -0.417314 -1.37065e-009 9.04996e-011 -5.44194e-010 -2.90554 0.965183 -0.102902 -1.37066e-009 9.04991e-011 -5.44191e-010 -10.2786 0.731801 -0.0259123 -1.37065e-009 9.05001e-011 -5.4419e-010 -2.22167 -0.733487 0.20892 -2.03217e-016 0 -3.88251e-019 -3.08505 -14.5066 5.41227 -0.351154 39.7605 0.588876 5.6911 -17.4619 15.0377 2.03217e-016 0 3.88251e-019 1.20159 -19.837 -17.1088 0.451945 46.7495 -1.05326 3.44916 -33.3357 5.41139 
-44.2057 90.5841 61.4019 -4.94173 -2.35218 108.852 -8.10721 6.7006 -4.2417 2.44763 -5.60867 -1.26754 -2.65768 6.54194 -7.50717 5.74637 32.8297 -10.5758 -0 0 0 -0 0 0 1.95795e-015 2.04721e-012 5.21865e-013 66.0006 7.71248 -15.3012 -18.9107 -11.7006 36.0967 -0.205724 -12.8266 -1.83362 -7.28071e-010 -4.54326e-009 1.83989e-009 -1.28076e-009 -7.88199e-009 3.18363e-009 -7.28056e-010 -4.54325e-009 1.83987e-009 7.73091 5.47488 0.417314 -7.28071e-010 -4.54326e-009 1.83988e-009 2.90554 0.965183 0.102902 -7.28056e-010 -4.54326e-009 1.83988e-009 10.2786 0.731801 0.0259123 -7.28069e-010 -4.54326e-009 1.83988e-009 2.22167 -0.733487 -0.20892 1.96806e-015 2.04723e-012 5.2167e-013 -73.1853 33.3173 4.44476 27.0392 -26.4701 -61.6333 0.932174 -26.317 3.98592 -1.50714e-009 -9.2421e-011 -6.19497e-010 -2.59132e-009 -1.73759e-010 -1.09407e-009 -1.50715e-009 -9.24172e-011 -6.19483e-010 -7.73091 5.47488 -0.417314 -1.50714e-009 -9.24206e-011 -6.19495e-010 -2.90554 0.965183 -0.102902 -1.50715e-009 -9.24212e-011 -6.19491e-010 -10.2786 0.731801 -0.0259123 -1.50714e-009 -9.24211e-011 -6.19489e-010 -2.22167 -0.733487 0.20892 -2.03217e-016 0 -3.88251e-019 -3.16462 -14.7773 5.22698 -0.366472 40.5183 0.609845 5.63018 -17.2019 15.023 2.03217e-016 0 3.88251e-019 1.07603 -19.8661 -17.198 0.460579 47.0668 -1.06427 3.46601 -33.2046 5.45555 
-43.6924 90.493 63.136 -4.78441 -2.29639 109.053 -8.17448 6.8101 -4.11136 2.43821 -5.58298 -1.23603 -2.74241 6.54887 -7.59354 5.91473 32.6664 -10.7904 -0 0 0 -0 0 0 6.3389e-015 2.02402e-012 5.12169e-013 66.761 7.75332 -15.4436 -18.7381 -11.5028 35.6976 -0.189408 -12.3058 -1.75684 -9.5249e-010 -3.95068e-009 1.49592e-009 -1.6639e-009 -6.8445e-009 2.58428e-009 -9.52472e-010 -3.95066e-009 1.4959e-009 7.73091 5.47488 0.417314 -9.52491e-010 -3.95068e-009 1.49592e-009 2.90554 0.965183 0.102902 -9.52473e-010 -3.95067e-009 1.49592e-009 10.2786 0.731801 0.0259123 -9.52486e-010 -3.95067e-009 1.49592e-009 2.22167 -0.733487 -0.20892 6.38363e-015 2.02404e-012 5.1197e-013 -74.5029 33.4617 5.29015 27.0225 -26.4133 -61.5394 0.92122 -26.1752 3.9611 -1.389e-009 -1.66256e-010 -5.11576e-010 -2.38872e-009 -3.00464e-010 -9.05224e-010 -1.389e-009 -1.66252e-010 -5.1156e-010 -7.73091 5.47488 -0.417314 -1.38899e-009 -1.66256e-010 -5.11573e-010 -2.90554 0.965183 -0.102902 -1.389e-009 -1.66257e-010 -5.11569e-010 -10.2786 0.731801 -0.0259123 -1.38899e-009 -1.66257e-010 -5.11567e-010 -2.22167 -0.733487 0.20892 -2.03217e-016 0 -3.88251e-019 -3.25513 -15.0424 5.05164 -0.381913 41.2545 0.630758 5.57143 -16.9245 15.0248 2.03217e-016 0 3.88251e-019 0.964593 -19.8854 -17.2514 0.469061 47.37 -1.07467 3.46574 -33.0724 5.47267 
-43.1763 90.4013 64.8686 -4.63437 -2.21804 109.218 -8.28546 6.91973 -3.95488 2.41894 -5.55072 -1.19791 -2.83142 6.56182 -7.68353 6.13455 32.5069 -11.0248 -0 0 0 -0 0 0 4.14686e-015 1.4664e-012 3.66073e-013 67.5566 7.87769 -15.6067 -18.5945 -11.339 35.372 -0.177583 -11.9066 -1.69824 -6.5864e-010 -2.02654e-009 6.99398e-010 -1.14619e-009 -3.50505e-009 1.20544e-009 -6.58623e-010 -2.02652e-009 6.99388e-010 7.73091 5.47488 0.417314 -6.58642e-010 -2.02654e-009 6.99407e-010 2.90554 0.965183 0.102902 -6.58622e-010 -2.02654e-009 6.99398e-010 10.2786 0.731801 0.0259123 -6.58637e-010 -2.02654e-009 6.99401e-010 2.22167 -0.733487 -0.20892 4.1786e-015 1.46642e-012 3.65829e-013 -75.693 33.6009 6.08423 26.9935 -26.3162 -61.3834 0.912061 -26.0559 3.94027 -8.63252e-010 -1.12192e-010 -1.6519e-010 -1.48722e-009 -2.02332e-010 -2.97819e-010 -8.63255e-010 -1.12188e-010 -1.65173e-010 -7.73091 5.47488 -0.417314 -8.6325e-010 -1.12192e-010 -1.65187e-010 -2.90554 0.965183 -0.102902 -8.63257e-010 -1.12192e-010 -1.65183e-010 -10.2786 0.731801 -0.0259123 -8.63249e-010 -1.12193e-010 -1.65183e-010 -2.22167 -0.733487 0.20892 -2.03217e-016 0 -3.88251e-019 -3.36698 -15.3057 4.88868 -0.397548 41.9757 0.651788 5.5138 -16.6169 15.0487 2.03217e-016 0 3.88251e-019 0.86001 -19.8928 -17.2644 0.477397 47.6601 -1.08446 3.44711 -32.938 5.46065 
-42.6569 90.3086 66.6027 -4.4902 -2.12132 109.348 -8.43521 7.03069 -3.77382 2.39072 -5.51032 -1.15365 -2.92108 6.57767 -7.77559 6.39344 32.3445 -11.2744 -0 0 0 -0 0 0 -1.48451e-015 5.53226e-013 1.26884e-013 68.3845 8.08111 -15.7906 -18.4842 -11.2158 35.1192 -0.16858 -11.6081 -1.65444 -4.53521e-011 8.15099e-010 -4.21245e-010 -7.27763e-011 1.42151e-009 -7.32288e-010 -4.53403e-011 8.1511e-010 -4.21251e-010 7.73091 5.47488 0.417314 -4.53584e-011 8.15089e-010 -4.2123e-010 2.90554 0.965183 0.102902 -4.5335e-011 8.151e-010 -4.21245e-010 10.2786 0.731801 0.0259123 -4.53518e-011 8.15098e-010 -4.2124e-010 2.22167 -0.733487 -0.20892 -1.4943e-015 5.53235e-013 1.26567e-013 -76.7634 33.7313 6.83161 26.9521 -26.1793 -61.1672 0.903428 -25.9429 3.92055 -6.87962e-011 1.44325e-012 3.20888e-010 -1.24506e-010 1.07639e-012 5.55226e-010 -6.87993e-011 1.4466e-012 3.20904e-010 -7.73091 5.47488 -0.417314 -6.87952e-011 1.4431e-012 3.20889e-010 -2.90554 0.965183 -0.102902 -6.88e-011 1.44301e-012 3.20892e-010 -10.2786 0.731801 -0.0259123 -6.87919e-011 1.44343e-012 3.20888e-010 -2.22167 -0.733487 0.20892 -2.03217e-016 0 -3.88251e-019 -3.49667 -15.5748 4.73095 -0.41365 42.6929 0.673321 5.45347 -16.277 15.0874 2.03217e-016 0 3.88251e-019 0.762776 -19.8863 -17.2429 0.485451 47.9351 -1.09377 3.42014 -32.7998 5.43546 
